<?xml version="1.0" encoding="UTF-8"?>
<svg data-bbox="18.4 25.275 163.1 149.425" viewBox="0 0 200 200" height="200" width="200" xmlns="http://www.w3.org/2000/svg" data-type="color">
    <g>
        <path d="M100.9 31.3c-39.3 0-71.3 32.2-71.3 71.7s32 71.7 71.3 71.7 71.3-32.2 71.3-71.7-32-71.7-71.3-71.7zm0 2c17.3 0 33.1 6.4 45.3 17 9 12.1 13.9 26.9 13.9 42.1 0 38.7-31.3 70.2-69.8 70.2-15.1 0-29.8-5-41.8-14A69.814 69.814 0 0 1 31.6 103c0-38.4 31.1-69.7 69.3-69.7z" fill="#DEE2DA" data-color="1"/>
        <path d="M32.5 32.2l1.9 1.1c1.2.7 2.2 1.7 2.9 2.9l1.1 1.9c.1.2.3.3.4.3s.3-.1.4-.3l1.1-1.9C41 35 42 34 43.2 33.3l1.9-1.1c.2-.1.3-.3.3-.4s-.1-.4-.3-.4l-1.9-1.1c-1.2-.7-2.2-1.7-2.9-2.9l-1.1-1.9c-.2-.3-.7-.3-.9 0l-1.1 1.9c-.7 1.2-1.7 2.2-2.9 2.9l-1.9 1.1c-.2.1-.3.3-.3.4s.3.3.4.4z" fill="#DEE2DA" data-color="1"/>
        <path d="M27.3 48.8l-1.3-.7c-.8-.4-1.4-1.1-1.9-1.9l-.6-1.2c-.2-.3-.7-.3-.9 0l-.7 1.3c-.4.8-1.1 1.4-1.9 1.9l-1.3.7c-.2.1-.3.3-.3.4s.1.4.3.4l1.3.7c.8.4 1.4 1.1 1.9 1.9l.7 1.3c.1.2.3.3.4.3s.3-.1.4-.3l.7-1.3c.4-.8 1.1-1.4 1.9-1.9l1.3-.7c.2-.1.3-.3.3-.4s-.1-.4-.3-.5z" fill="#DEE2DA" data-color="1"/>
        <path d="M181.2 145.6l-1.3-.7c-.8-.4-1.4-1.1-1.9-1.9l-.7-1.3c-.1-.2-.3-.3-.4-.3-.2 0-.3.1-.4.3l-.7 1.3c-.4.8-1.1 1.4-1.9 1.9l-1.3.7c-.2.1-.3.3-.3.4s.1.4.3.4l1.3.7c.8.4 1.4 1.1 1.9 1.9l.7 1.3c.1.2.3.3.4.3.2 0 .3-.1.4-.3l.7-1.3c.4-.8 1.1-1.4 1.9-1.9l1.3-.7c.2-.1.3-.3.3-.4s-.1-.4-.3-.4z" fill="#DEE2DA" data-color="1"/>
    </g>
</svg>
