<?xml version="1.0" encoding="UTF-8"?>
<svg width="128pt" height="128pt" version="1.1" viewBox="0 0 128 128" xmlns="http://www.w3.org/2000/svg">
 <path d="m16 32c0-2.9453 2.3906-5.3359 5.3359-5.3359h85.328c2.9453 0 5.3359 2.3906 5.3359 5.3359s-2.3906 5.3359-5.3359 5.3359h-85.328c-2.9453 0-5.3359-2.3906-5.3359-5.3359zm0 32c0-2.9453 2.3906-5.3359 5.3359-5.3359h85.328c2.9453 0 5.3359 2.3906 5.3359 5.3359s-2.3906 5.3359-5.3359 5.3359h-85.328c-2.9453 0-5.3359-2.3906-5.3359-5.3359zm5.3359 26.664c-2.9453 0-5.3359 2.3906-5.3359 5.3359s2.3906 5.3359 5.3359 5.3359h85.328c2.9453 0 5.3359-2.3906 5.3359-5.3359s-2.3906-5.3359-5.3359-5.3359z" fill="#F18A24"/>
</svg>
