<svg xmlns="http://www.w3.org/2000/svg" viewBox="9.386675199999999 5.2906752 109.568 117.76" version="1.1" style="max-height: 500px" width="109.568" height="117.76">
 <path fill-rule="evenodd" fill="#a972d6" d="m104.34 108.3c0.26562 0.96484-0.30078 1.9648-1.2656 2.2305s-1.9648-0.30078-2.2305-1.2656l-3.5586-12.902c-0.69531-2.5156 1.4453-5.2734 4.4727-9.1836 6.6289-8.5547 18.188-23.473 10.105-47.73-3.5664-10.699-11.258-19.766-21.625-25.066-10-5.1094-22.227-6.6016-35.543-3.0625-12.598 3.3477-21.734 9.9297-27.082 18.215-5.4844 8.4922-6.9805 18.77-4.2344 29.109 0.73828 2.7852-2.0273 6.1992-4.957 9.8164-2.4062 2.9688-4.9453 6.1016-5.082 8.1289-0.085938 1.2969 1.4648 2.2773 6.2266 2.5938 2.6016 0.17187 4.6328 2.2656 4.7266 4.8711 0.33984 9.6367 1.4844 15.402 5.6211 18.602 4.3047 3.332 12.074 4.3359 25.609 4.3984 0.8125 0.003907 1.4922 0.53906 1.7227 1.2734l3.6406 11.551c0.29688 0.95703-0.23828 1.9766-1.1953 2.2773-0.95703 0.29688-1.9766-0.23828-2.2773-1.1953l-3.2383-10.289c-13.559-0.13281-21.582-1.3516-26.48-5.1406-5.2266-4.043-6.6484-10.59-7.0273-21.348-0.011719-0.71875-0.58984-1.3203-1.3242-1.3711-7.4805-0.49609-9.8516-2.9961-9.625-6.4492 0.21094-3.1836 3.1289-6.7812 5.8906-10.191 2.332-2.875 4.5312-5.5898 4.2656-6.6016-3.0078-11.324-1.3477-22.652 4.6875-31.996 6.125-9.4805 16.559-16.691 30.566-20.105 13.848-3.375 26.508-1.5508 36.766 3.6875 11.223 5.7344 19.555 15.559 23.418 27.156 8.6914 26.086-3.6172 41.973-10.676 51.082-2.3789 3.0703-4.0586 5.2383-3.8516 6l3.5625 12.902zm-46.059-75.855-1.6289-4.8789c-0.32031-0.94922-1.3477-1.4648-2.2969-1.1445-0.94922 0.32031-1.4609 1.3477-1.1445 2.2969l1.6289 4.8828c0.32031 0.94922 1.3477 1.4609 2.2969 1.1445 0.94922-0.32031 1.4648-1.3477 1.1445-2.2969zm23.406 0.96484 1.5625-4.9023c0.30078-0.95312-0.22656-1.9727-1.1797-2.2773-0.95312-0.30078-1.9727 0.22656-2.2734 1.1797l-1.5625 4.9023c-0.30078 0.95312 0.22656 1.9727 1.1797 2.2773 0.95312 0.30078 1.9727-0.22656 2.2734-1.1797zm-32.281 2.8281-5.6719-8.5859c-0.55469-0.83594-1.6836-1.0664-2.5195-0.51172-0.83594 0.55469-1.0664 1.6836-0.51172 2.5156l5.6719 8.5859c0.55469 0.83594 1.6797 1.0664 2.5195 0.51172 0.83594-0.55469 1.0664-1.6797 0.51172-2.5195zm40.809 1.7109 5.5547-8.6602c0.54297-0.84375 0.29687-1.9688-0.54688-2.5117-0.84375-0.54297-1.9688-0.29688-2.5078 0.54687l-5.5586 8.6602c-0.54297 0.84375-0.29688 1.9688 0.54688 2.5117 0.84375 0.54297 1.9688 0.29687 2.5117-0.54688zm-19.867-6.832v-10.293c0-1.0039-0.81641-1.8203-1.8203-1.8203s-1.8203 0.81641-1.8203 1.8203v10.293c0 1.0039 0.8125 1.8203 1.8203 1.8203 1.0039 0 1.8203-0.8125 1.8203-1.8203zm-0.39844 6.0664c-0.75391-0.82031-1.957-0.96484-2.7578-0.10156-2.5195 2.7188-4.4688 5.4453-5.8477 8.1914-2.7383-1.8047-5.8594-3.1523-9.168-4.1758-1.0156-0.3125-2.082 0.30078-2.3125 1.3789-0.81641 3.5938-1.1328 6.9219-0.95703 9.9766-3.293-0.19141-6.6289 0.20312-10.016 0.96875-1.0312 0.23438-1.6445 1.293-1.3359 2.3047 2.4062 7.7812 6.2383 13.215 11.516 16.277 5.1875 3.0078 11.668 3.6602 19.453 1.9258 7.7852 1.7344 14.262 1.082 19.453-1.9258 5.2773-3.0625 9.1055-8.4961 11.512-16.277 0.30859-1.0078-0.30859-2.0703-1.3359-2.3047-3.3867-0.76562-6.7266-1.1602-10.016-0.96875 0.17578-3.0547-0.14062-6.3789-0.95703-9.9766-0.23047-1.0742-1.2969-1.6914-2.3125-1.3789-3.3086 1.0195-6.4297 2.3711-9.168 4.1719-1.3594-2.7109-3.2773-5.4062-5.75-8.0898zm7.168 11.516c2.1523 6.5742 0.99219 13.008-2.9609 19.141 3.6406-1.9297 6.3164-4.3867 8.0312-7.3672 2.6211-4.5625 2.7734-9.9961 1.8398-15.266-2.457 0.89453-4.8398 2.043-6.9062 3.4922zm-14.238 19.141c-3.9531-6.1328-5.1172-12.566-2.9609-19.141-2.0664-1.4492-4.4492-2.5977-6.9102-3.4922-1.7109 9.6406 0.54297 17.691 9.8672 22.633zm11.68-12.652c-0.011719-5.2617-2.5977-10.039-6.043-14.141-7.6055 9.043-8.4688 18.297 0.003907 28.289 4.043-4.7695 6.0508-9.4844 6.0391-14.148zm-13.035 16.031c-6.4883-3.3359-10.711-8.3203-12.133-15.09-2.5273-0.22656-5.1406-0.03125-7.7305 0.42578 2.1211 5.8516 5.1953 9.9609 9.2266 12.297 2.9727 1.7227 6.5156 2.5156 10.637 2.3633zm26.129-15.09c-1.4219 6.7695-5.6445 11.754-12.133 15.09 4.1211 0.14844 7.6641-0.64062 10.637-2.3633 4.0312-2.3398 7.1055-6.4453 9.2266-12.297-2.5898-0.45703-5.1992-0.65234-7.7305-0.42578z"/>
</svg>