<svg xmlns="http://www.w3.org/2000/svg" viewBox="5.546675199999999 5.546675199999999 117.504 116.992" version="1.1" style="max-height: 500px" width="117.504" height="116.992">
 <path fill-rule="evenodd" fill="#a972d6" d="m36.996 17.23c-0.85938 0.49219-1.9531 0.19922-2.4492-0.66016-0.49219-0.85937-0.19531-1.9531 0.66016-2.4492 26.062-15.004 59.043-7.4805 76.035 16.887l1.0117-7.2812c0.13672-0.98437 1.043-1.668 2.0273-1.5352 0.98438 0.13672 1.6719 1.043 1.5352 2.0234l-1.6797 12.125c-0.16797 1.0508-1.1055 1.707-2.1523 1.5117l-11.465-2.4336c-0.97266-0.20703-1.5938-1.1602-1.3867-2.1328 0.20313-0.96875 1.1602-1.5898 2.1328-1.3867l7.3086 1.5508c-15.855-23.148-47.055-30.375-71.578-16.219zm14.758 58.754c6.6367 6.7695 17.504 6.8789 24.273 0.24609 6.7617-6.625 6.8672-17.453 0.24609-24.211-6.6367-6.7695-17.508-6.875-24.273-0.24609-6.7617 6.625-6.8711 17.449-0.24609 24.211zm-19.562-13.871c-0.074218 1.2539-0.070312 2.5273 0.003906 3.7773l-2.9609 1.707c-3.4414 1.9883-4.6289 6.3984-2.6367 9.8477l7.0547 12.223c1.9609 3.457 6.4258 4.6133 9.8555 2.6523l2.9648-1.7148c1.0586 0.69531 2.1367 1.3203 3.2695 1.8867l-0.007813 3.418c0 3.9805 3.2422 7.2188 7.2188 7.2188h14.117c3.9727 0 7.2109-3.2266 7.2109-7.2188l0.007812-3.4141c1.0938-0.55078 2.2344-1.207 3.2695-1.8867l2.9531 1.6992c3.3477 1.9922 7.8516 0.83594 9.8555-2.6328l7.0586-12.227c1.9922-3.4492 0.80469-7.8633-2.6367-9.8477l-2.957-1.707c0.074219-1.25 0.070313-2.5273-0.003906-3.7773l2.9609-1.707c3.4414-1.9883 4.6289-6.3984 2.6367-9.8477l-7.0039-12.129c-0.94141-1.7539-2.6484-2.9805-4.4336-3.457-1.7422-0.46484-3.6602-0.28516-5.3594 0.65625l-3.0742 1.7695c-1.0586-0.69531-2.1289-1.3164-3.2656-1.8828v-3.4219c0-3.9805-3.2422-7.2188-7.2188-7.2188h-14.117c-3.9805 0-7.2188 3.2383-7.2188 7.2188v3.4141c-1.0938 0.55469-2.2344 1.207-3.2695 1.8867l-2.9531-1.7031c-3.5117-1.9922-7.875-0.79687-9.8555 2.6328l-7.0586 12.23c-1.9922 3.4492-0.80078 7.8633 2.6367 9.8477l2.9609 1.707zm-1.1562-4.8164 3.9336 2.2734c0.58594 0.33984 0.95312 1.0039 0.88672 1.7227-0.14844 1.5586-0.1875 3.7852-0.003907 5.3281 0.10156 0.70703-0.22266 1.4336-0.87891 1.8125l-3.9375 2.2734c-1.7266 0.99609-2.3203 3.2344-1.3281 4.9531l7.0625 12.223c0.99609 1.7109 3.1992 2.3164 4.9492 1.3125l3.9297-2.2656c0.58984-0.33984 1.3516-0.32813 1.9414 0.089843 1.4609 1.0352 3.0664 1.9688 4.6914 2.707 0.61719 0.28125 1.0469 0.90625 1.0469 1.6328l0.007813 4.5469c0 1.9922 1.6289 3.6172 3.6211 3.6172h14.117c1.9961 0 3.625-1.6406 3.625-3.6172l-0.007813-4.5234c-0.007812-0.69141 0.38672-1.3555 1.0547-1.6602 1.5391-0.69922 3.3086-1.6797 4.6445-2.6641 0.55859-0.42969 1.3438-0.50391 1.9922-0.12891 0.33594 0.19141 3.957 2.2773 3.9531 2.2852 1.7148 0.96875 3.9336 0.375 4.9297-1.3438l7.0586-12.215c0.99219-1.7188 0.39844-3.957-1.3281-4.9531l-3.9336-2.2734c-0.58594-0.33984-0.95312-1-0.88672-1.7188 0.14844-1.5586 0.1875-3.7891 0.003907-5.3281-0.10156-0.70703 0.22266-1.4336 0.87891-1.8125l3.9375-2.2734c1.7266-0.99609 2.3242-3.2344 1.3281-4.9531l-7.0586-12.215c-0.99609-1.7227-3.2305-2.3242-4.9492-1.3281l-3.9375 2.2734c-0.58984 0.33984-1.3516 0.33203-1.9414-0.089844-1.1172-0.79297-3.3164-2.1367-4.5508-2.6445-0.69531-0.25-1.1953-0.91406-1.1953-1.6953v-4.5469c0-1.9922-1.625-3.6172-3.6172-3.6172h-14.117c-1.9922 0-3.6211 1.625-3.6211 3.6172v4.5234c0.007812 0.69141-0.38672 1.3555-1.0547 1.6602-1.5391 0.69922-3.3086 1.6797-4.6445 2.6602-0.55859 0.42969-1.3438 0.50391-1.9922 0.12891l-3.9336-2.2734c-1.7188-0.98828-3.9531-0.39453-4.9492 1.332l-7.0586 12.215c-0.99219 1.7188-0.39844 3.957 1.3281 4.9531zm31.383-5.082c0.015625-0.98828 0.83203-1.7773 1.8203-1.7656 0.99219 0.015625 1.7812 0.83203 1.7656 1.8203l-0.16797 9.9297h6.543c0.99609 0 1.8008 0.80469 1.8008 1.8008s-0.80469 1.7969-1.8008 1.7969l-8.3672-0.007813c-1.0078-0.003906-1.8086-0.82422-1.793-1.8203l0.19531-11.758zm1.3867 32.504c-11.457-0.11719-20.652-9.4805-20.531-20.93 0.11719-11.461 9.5078-20.625 20.953-20.508 11.457 0.11719 20.652 9.4805 20.531 20.93-0.12109 11.461-9.5078 20.625-20.957 20.508zm37.262 18.602c1.668-1.5703 3.1562-3.1523 4.6172-4.9219 1.8086-2.1875 4.3477 0.35937 2.9297 2.1055-1.5508 1.9023-3.2773 3.7422-5.0664 5.4258-0.85938 0.80859-2.2227 0.60156-2.8086-0.42188-0.40625-0.72266-0.26953-1.6172 0.33203-2.1914zm10.551-13.77c-0.42578 0.80078-0.19141 1.7891 0.55078 2.3125 0.88672 0.62891 2.1211 0.33203 2.6328-0.625 1.1836-2.2188 2.1875-4.4062 3.0781-6.7578 0.46484-1.2461-0.51953-2.5391-1.8438-2.4297-0.69141 0.0625-1.2773 0.50781-1.5273 1.1602-0.86719 2.2734-1.75 4.1914-2.8906 6.3398zm5.6406-16.41c-0.13281 0.78125 0.25391 1.5469 0.96094 1.9102 1.0859 0.54688 2.3828-0.10938 2.5898-1.3047 0.41797-2.4531 0.68359-4.8945 0.78906-7.3828 0.042969-1.1562-0.98438-2.0508-2.125-1.8438-0.83203 0.15625-1.4375 0.85547-1.4766 1.6992-0.10938 2.4453-0.33203 4.5156-0.73828 6.9258zm0.16406-17.344c0.22656 1.4062 1.9023 2.0078 2.9727 1.0664 0.85938-0.76172 0.58203-1.6992 0.40625-2.7109-0.36328-2.0898-0.83594-4.1289-1.4258-6.1641-0.37891-1.3008-2-1.7344-2.9805-0.79297-0.87109 0.84375-0.49219 1.7227-0.25 2.6172 0.55469 2.0352 0.94141 3.8984 1.2734 5.9844zm-26.391 54.973c0.85938-0.49219 1.9531-0.19531 2.4492 0.66016 0.49219 0.85937 0.19531 1.9531-0.66016 2.4492-26.371 15.184-59.781 7.293-76.582-17.695l-1.0039 7.2344c-0.13672 0.98438-1.043 1.668-2.0273 1.5312-0.98047-0.13672-1.668-1.043-1.5352-2.0234l1.6836-12.121c0.14453-1.0352 1.1328-1.7266 2.1523-1.5117l11.465 2.4336c0.97266 0.20313 1.5938 1.1602 1.3867 2.1289-0.20312 0.97266-1.1602 1.5938-2.1328 1.3867l-7.3398-1.5586c15.645 23.812 47.297 31.43 72.145 17.09zm-64.762-85.422c-1.7148 1.6797-3.168 3.2891-4.6562 5.168-0.46484 0.58984-1.2227 0.82812-1.9414 0.61328-1.2109-0.375-1.6719-1.832-0.89453-2.832 1.5078-1.9219 3.2266-3.8203 4.9766-5.5273 0.51562-0.5 1.2578-0.64453 1.9258-0.38281 1.2109 0.48828 1.5195 2.0469 0.58984 2.9609zm-10.301 13.949c0.46875-0.93359 0.066406-2.0508-0.89453-2.4688-0.875-0.375-1.8828-0.011719-2.3164 0.83594-1.1406 2.2305-2.1094 4.4531-2.9609 6.8125-0.42578 1.2031 0.49219 2.4492 1.7695 2.4023 0.74219-0.035156 1.375-0.49609 1.625-1.1953 0.82812-2.2852 1.6758-4.2227 2.7734-6.3867zm-5.3516 16.508c0.21094-1.4258-1.2422-2.5117-2.5508-1.9023-0.99609 0.47266-1.0195 1.3633-1.1484 2.3125-0.28906 2.1016-0.47266 4.3203-0.51953 6.4453-0.023438 1.3008 1.2891 2.2031 2.4961 1.6992 0.66016-0.28125 1.0859-0.90234 1.1055-1.6211 0.066406-2.4414 0.25-4.5234 0.61719-6.9375zm0.14453 17.344c-0.14844-0.83984-0.85547-1.457-1.707-1.4922-1.1445-0.039062-2.0352 0.97656-1.8398 2.1055 0.42188 2.4414 0.99609 4.8555 1.7344 7.2227 0.41797 1.332 2.1055 1.707 3.0547 0.67578 0.78125-0.85547 0.39844-1.6836 0.13672-2.5703-0.58594-2-1.0156-3.8906-1.375-5.9453z"/>
</svg>